<svg width="50" height="50" viewBox="0 0 50 50" fill="none" xmlns="http://www.w3.org/2000/svg">
<path d="M25 3.125C12.9199 3.125 3.125 12.9199 3.125 25C3.125 37.0801 12.9199 46.875 25 46.875C37.0801 46.875 46.875 37.0801 46.875 25C46.875 12.9199 37.0801 3.125 25 3.125ZM25.2637 35.8398C19.8926 35.8398 16.7969 32.2656 16.7969 26.3232V23.7695C16.7969 17.7832 19.8926 14.1602 25.2588 14.1602C29.8633 14.1602 33.2031 17.124 33.2031 21.3574C33.2031 21.4844 33.1006 21.5869 32.9736 21.5869H30.2051C30 21.5869 29.834 21.4307 29.8145 21.2256C29.6191 18.8086 27.8613 17.1533 25.2734 17.1533C22.085 17.1533 20.2881 19.5215 20.2881 23.7695V26.3379C20.2881 30.5225 22.0898 32.8613 25.2734 32.8613C27.8516 32.8613 29.6045 31.3135 29.8145 29.0625C29.834 28.8623 30 28.7061 30.2051 28.7061H32.9785C33.1055 28.7061 33.208 28.8086 33.208 28.9355C33.208 32.9687 29.8535 35.8398 25.2637 35.8398Z" fill="white"/>
</svg>
