<svg width="30" height="31" viewBox="0 0 30 31" fill="none" xmlns="http://www.w3.org/2000/svg">
<g clip-path="url(#clip0_25_44)">
<path d="M29.2956 16.7834C30.1068 16.0736 30.1068 14.9208 29.2956 14.2109L18.9115 5.12486C18.1002 4.41501 16.7828 4.41501 15.9715 5.12486C15.1602 5.83471 15.1602 6.9875 15.9715 7.69735L22.8185 13.6828H2.907C1.75826 13.6828 0.830185 14.4949 0.830185 15.5C0.830185 16.5052 1.75826 17.3172 2.907 17.3172H22.812L15.978 23.3027C15.1667 24.0126 15.1667 25.1654 15.978 25.8752C16.7892 26.5851 18.1067 26.5851 18.918 25.8752L29.3021 16.7891L29.2956 16.7834Z" fill="white"/>
</g>
<defs>
<clipPath id="clip0_25_44">
<rect width="29.0755" height="29.0755" fill="white" transform="translate(0.8302 0.96228)"/>
</clipPath>
</defs>
</svg>
