<svg width="23" height="23" viewBox="0 0 23 23" fill="none" xmlns="http://www.w3.org/2000/svg">
<path d="M2.15625 2.875C0.96582 2.875 0 3.84082 0 5.03125C0 5.70957 0.318945 6.34746 0.8625 6.75625L10.6375 14.0875C11.1496 14.4693 11.8504 14.4693 12.3625 14.0875L22.1375 6.75625C22.6811 6.34746 23 5.70957 23 5.03125C23 3.84082 22.0342 2.875 20.8438 2.875H2.15625ZM0 7.90625V17.25C0 18.8357 1.28926 20.125 2.875 20.125H20.125C21.7107 20.125 23 18.8357 23 17.25V7.90625L13.225 15.2375C12.2008 16.0057 10.7992 16.0057 9.775 15.2375L0 7.90625Z" fill="black" fill-opacity="0.6"/>
</svg>
