<svg width="54" height="54" viewBox="0 0 54 54" fill="none" xmlns="http://www.w3.org/2000/svg">
<path d="M8.4375 10.125C5.66156 10.125 3.375 12.4116 3.375 15.1875V38.8125C3.375 41.5884 5.66156 43.875 8.4375 43.875H45.5625C48.3384 43.875 50.625 41.5884 50.625 38.8125V15.1875C50.625 12.4116 48.3384 10.125 45.5625 10.125H8.4375ZM8.4375 13.5H45.5625C46.5176 13.5 47.25 14.2324 47.25 15.1875V38.8125C47.25 39.7676 46.5176 40.5 45.5625 40.5H8.4375C7.48238 40.5 6.75 39.7676 6.75 38.8125V15.1875C6.75 14.2324 7.48238 13.5 8.4375 13.5ZM32.7476 20.8828C29.4975 20.8828 27.7914 22.4859 27.7914 24.5211C27.7914 28.1998 32.1148 27.6936 32.1148 29.5836C32.1148 29.9076 31.8448 30.6383 30.0594 30.6383C28.2707 30.6383 27.1063 30.0054 27.1063 30.0054L26.5781 32.4321C26.5781 32.4321 27.6851 33.1172 29.9008 33.1172C32.1148 33.1172 35.2266 31.4162 35.2266 28.9508C35.2266 25.9841 30.9015 25.7867 30.9015 24.4688C30.9015 23.7971 31.4753 23.2554 33.0109 23.2554C34.0133 23.2554 35.1203 24.0469 35.1203 24.0469L35.6484 21.4633C35.6484 21.4633 34.1786 20.8828 32.7476 20.8828ZM18.8797 21.0938L16.0312 29.4266C16.0312 29.4266 15.8861 28.7077 15.8203 28.2656C14.2121 24.6544 11.6016 23.3078 11.6016 23.3078L14.0805 32.7476H17.4555L22.2008 21.0938H18.8797ZM23.4141 21.0938L21.5679 32.7476H24.6797L26.5258 21.0938H23.4141ZM40.1844 21.0938L35.1219 32.7476H38.1797L38.8125 31.1141H42.7157L43.0312 32.7476H45.8258L43.4531 21.0938H40.1844ZM8.17256 21.1461C8.17256 21.1461 14.2442 23.0057 15.6617 27.5805L14.607 22.3071C14.607 22.3071 14.1463 21.1461 12.9195 21.1461H8.17256ZM41.3438 24.4688L42.2398 28.8461H39.7086L41.3438 24.4688Z" fill="black"/>
</svg>
