<svg width="61" height="61" viewBox="0 0 61 61" fill="none" xmlns="http://www.w3.org/2000/svg">
<path d="M57.0858 15.25C55.1287 16.1395 53.0192 16.7241 50.8333 17.0037C53.07 15.6566 54.7983 13.5216 55.6117 10.9545C53.5021 12.2254 51.1637 13.115 48.6983 13.6233C46.6904 11.4375 43.8692 10.1666 40.6667 10.1666C34.6937 10.1666 29.8137 15.0466 29.8137 21.0704C29.8137 21.9345 29.9154 22.7733 30.0933 23.5612C21.045 23.1037 12.9879 18.7575 7.62499 12.1745C6.68457 13.7758 6.15082 15.6566 6.15082 17.6391C6.15082 21.4262 8.05707 24.7812 11.0054 26.6875C9.20082 26.6875 7.52332 26.1791 6.04915 25.4166V25.4929C6.04915 30.7795 9.81082 35.202 14.7925 36.1933C13.1931 36.631 11.514 36.6919 9.88707 36.3712C10.5774 38.5379 11.9294 40.4338 13.753 41.7924C15.5766 43.151 17.7801 43.9039 20.0537 43.9454C16.1996 46.9965 11.4222 48.6457 6.50665 48.622C5.64249 48.622 4.77832 48.5712 3.91415 48.4695C8.74332 51.5704 14.4875 53.375 20.6383 53.375C40.6667 53.375 51.6721 36.7525 51.6721 22.3412C51.6721 21.8583 51.6721 21.4008 51.6467 20.9179C53.7817 19.3929 55.6117 17.4612 57.0858 15.25Z" fill="white"/>
</svg>
