<svg width="20" height="24" viewBox="0 0 20 24" fill="none" xmlns="http://www.w3.org/2000/svg">
<path d="M6.42857 6.7088V8.94507H13.5714V6.7088C13.5714 4.64957 11.9732 2.98169 10 2.98169C8.02679 2.98169 6.42857 4.64957 6.42857 6.7088ZM3.57143 8.94507V6.7088C3.57143 3.00498 6.45089 0 10 0C13.5491 0 16.4286 3.00498 16.4286 6.7088V8.94507H17.1429C18.7187 8.94507 20 10.2822 20 11.9268V20.8718C20 22.5164 18.7187 23.8535 17.1429 23.8535H2.85714C1.28125 23.8535 0 22.5164 0 20.8718V11.9268C0 10.2822 1.28125 8.94507 2.85714 8.94507H3.57143Z" fill="black" fill-opacity="0.6"/>
</svg>
