<svg width="59" height="22" viewBox="0 0 59 22" fill="none" xmlns="http://www.w3.org/2000/svg">
<path d="M59 4.88984L51.299 22H48.9169L51.7783 16.0125L46.7082 4.888H49.2138L52.8827 13.4147H52.9306L56.4834 4.888L59 4.88984ZM27.0048 10.1807V17.1124H24.5841V0.00226695H30.989C32.5094 -0.0391754 33.99 0.488865 35.1373 1.48174C36.2711 2.40755 36.8943 3.71653 36.8759 5.10067C36.8837 5.79723 36.7311 6.48634 36.4297 7.1152C36.1284 7.74407 35.6863 8.29601 35.1373 8.72876C34.0237 9.70224 32.6409 10.1807 30.989 10.1807H27.0048ZM26.9956 2.11239V8.07977H31.048C31.9302 8.11124 32.7894 7.79573 33.4393 7.20162C34.0643 6.64797 34.409 5.89265 34.409 5.10983C34.409 4.31785 34.0624 3.56253 33.4393 3.01804C33.121 2.71682 32.7457 2.48149 32.3352 2.3257C31.9247 2.16992 31.4872 2.09679 31.048 2.11056L26.9956 2.11239ZM41.7247 4.88984C43.2605 4.88984 44.481 5.31883 45.3734 6.16948C46.2657 7.02013 46.7082 8.18427 46.7082 9.66374V16.7384H44.7115V15.1435H44.6248C43.7602 16.4524 42.6171 17.1106 41.1864 17.1106C39.9567 17.1106 38.9389 16.7384 38.113 15.9831C37.7145 15.6323 37.3973 15.1997 37.1834 14.7151C36.9695 14.2305 36.8639 13.7055 36.874 13.1763C36.874 11.992 37.3055 11.0479 38.1794 10.3402C39.044 9.64358 40.2056 9.28975 41.6547 9.28975C42.8936 9.28975 43.9113 9.52808 44.7078 9.99557V9.49875C44.7104 9.1381 44.6354 8.78107 44.4879 8.4516C44.3403 8.12213 44.1236 7.82784 43.8524 7.58845C43.3059 7.07984 42.5838 6.79957 41.8354 6.80563C40.6739 6.80563 39.752 7.31162 39.0699 8.3236L37.2354 7.13929C38.2439 5.63966 39.741 4.88617 41.7192 4.88617L41.7247 4.88984ZM39.0274 13.2258C39.0233 13.4975 39.0838 13.7663 39.204 14.0104C39.3241 14.2544 39.5005 14.4667 39.7188 14.6301C40.1797 15.0023 40.7568 15.204 41.3413 15.193C42.2152 15.193 43.0596 14.83 43.6846 14.1902C44.3465 13.5797 44.7226 12.7198 44.7226 11.8215C44.0699 11.2862 43.1665 11.0185 42.005 11.0185C41.1495 11.0185 40.4489 11.2294 39.8829 11.6492C39.3169 12.0782 39.0274 12.597 39.0274 13.2258ZM10.0375 0.00226695C12.5198 -0.0275036 14.9202 0.884398 16.7503 2.55238L13.8889 5.34083C12.8436 4.37651 11.4631 3.85276 10.0375 3.87969C8.7934 3.88575 7.58214 4.27706 6.57206 4.99922C5.56197 5.72139 4.80324 6.73854 4.40134 7.90928C3.97904 9.12181 3.97904 10.4403 4.40134 11.6529C4.80324 12.8236 5.56197 13.8408 6.57206 14.5629C7.58214 15.2851 8.7934 15.6764 10.0375 15.6825C11.3907 15.6825 12.5541 15.3488 13.4556 14.7566C13.9743 14.4208 14.4188 13.9834 14.7621 13.4713C15.1054 12.9591 15.3402 12.3828 15.4523 11.7775H10.0356V8.01561H19.4937C19.6098 8.67376 19.667 9.33375 19.667 10.0011C19.667 12.9802 18.5718 15.501 16.6802 17.2004C15.0191 18.6909 12.744 19.558 10.0356 19.558C8.18698 19.5674 6.37155 19.0696 4.78907 18.1193C3.20659 17.169 1.91837 15.8031 1.06613 14.1718C0.365434 12.8124 0 11.3068 0 9.77924C0 8.25169 0.365434 6.74605 1.06613 5.38666C1.91734 3.75693 3.2038 2.392 4.78418 1.4418C6.36457 0.491596 8.17775 -0.00711712 10.0246 0.000434661L10.0375 0.00226695Z" fill="black"/>
</svg>
