<svg width="20" height="23" viewBox="0 0 20 23" fill="none" xmlns="http://www.w3.org/2000/svg">
<path d="M6.42857 6.46875V8.625H13.5714V6.46875C13.5714 4.4832 11.9732 2.875 10 2.875C8.02679 2.875 6.42857 4.4832 6.42857 6.46875ZM3.57143 8.625V6.46875C3.57143 2.89746 6.45089 0 10 0C13.5491 0 16.4286 2.89746 16.4286 6.46875V8.625H17.1429C18.7187 8.625 20 9.91426 20 11.5V20.125C20 21.7107 18.7187 23 17.1429 23H2.85714C1.28125 23 0 21.7107 0 20.125V11.5C0 9.91426 1.28125 8.625 2.85714 8.625H3.57143Z" fill="black" fill-opacity="0.6"/>
</svg>
