<svg width="63" height="75" viewBox="0 0 63 75" fill="none" xmlns="http://www.w3.org/2000/svg">
<g clip-path="url(#clip0_27_292)">
<path d="M1.3219 34.1894C-0.435908 36.0204 -0.435908 38.9941 1.3219 40.8251L23.8219 64.2626C25.5797 66.0937 28.4344 66.0937 30.1922 64.2626C31.95 62.4316 31.95 59.4579 30.1922 57.6269L15.3563 42.1874L58.5 42.1874C60.9891 42.1874 63 40.0927 63 37.4999C63 34.9072 60.9891 32.8124 58.5 32.8124L15.3703 32.8124L30.1782 17.373C31.936 15.5419 31.936 12.5683 30.1782 10.7372C28.4203 8.90619 25.5657 8.90619 23.8078 10.7372L1.30784 34.1747L1.3219 34.1894Z" fill="white"/>
</g>
<defs>
<clipPath id="clip0_27_292">
<rect width="63" height="75" fill="white" transform="matrix(-1 0 0 -1 63 75)"/>
</clipPath>
</defs>
</svg>
