<svg width="63" height="75" viewBox="0 0 63 75" fill="none" xmlns="http://www.w3.org/2000/svg">
<g clip-path="url(#clip0_27_289)">
<path d="M61.6781 40.8106C63.4359 38.9796 63.4359 36.0059 61.6781 34.1749L39.1781 10.7374C37.4203 8.90631 34.5656 8.90631 32.8078 10.7374C31.05 12.5684 31.05 15.5421 32.8078 17.3731L47.6437 32.8126H4.5C2.01094 32.8126 0 34.9073 0 37.5001C0 40.0928 2.01094 42.1876 4.5 42.1876H47.6297L32.8219 57.627C31.0641 59.4581 31.0641 62.4317 32.8219 64.2628C34.5797 66.0938 37.4344 66.0938 39.1922 64.2628L61.6922 40.8253L61.6781 40.8106Z" fill="white"/>
</g>
<defs>
<clipPath id="clip0_27_289">
<rect width="63" height="75" fill="white"/>
</clipPath>
</defs>
</svg>
