<svg width="48" height="48" viewBox="0 0 48 48" fill="none" xmlns="http://www.w3.org/2000/svg">
<g clip-path="url(#clip0_86_44)">
<path d="M46.9929 26.1188C48.3321 24.9469 48.3321 23.0438 46.9929 21.8719L29.85 6.8719C28.5107 5.70003 26.3357 5.70003 24.9964 6.8719C23.6571 8.04378 23.6571 9.9469 24.9964 11.1188L36.3 21H3.42857C1.53214 21 0 22.3407 0 24C0 25.6594 1.53214 27 3.42857 27H36.2893L25.0071 36.8813C23.6679 38.0531 23.6679 39.9563 25.0071 41.1282C26.3464 42.3 28.5214 42.3 29.8607 41.1282L47.0036 26.1282L46.9929 26.1188Z" fill="black"/>
</g>
<defs>
<clipPath id="clip0_86_44">
<rect width="48" height="48" fill="white"/>
</clipPath>
</defs>
</svg>
