<svg width="49" height="49" viewBox="0 0 49 49" fill="none" xmlns="http://www.w3.org/2000/svg">
<g clip-path="url(#clip0_86_40)">
<path d="M2.28002 9.555C1.02121 9.555 0 10.5757 0 11.835V38.047C0 39.3061 1.02136 40.327 2.28002 40.327H46.72C47.9788 40.327 49 39.3063 49 38.047V11.835C49 10.5758 47.9787 9.55495 46.72 9.55495H2.27997L2.28002 9.555ZM16.0674 13.2591C18.8644 13.2591 21.4331 14.2322 23.4495 15.8576C21.7531 17.3756 20.4877 19.3699 19.8634 21.6305H20.8419C21.4181 19.7656 22.4649 18.1053 23.8446 16.7886C25.2244 18.1053 26.2711 19.7656 26.8474 21.6305H27.8412C27.2082 19.3818 25.9411 17.3994 24.2458 15.8913C26.2661 14.2453 28.845 13.2591 31.654 13.2591C38.1363 13.2591 43.391 18.5144 43.391 24.9976C43.391 31.4809 38.1363 36.7362 31.654 36.7362C28.7983 36.7362 26.1797 35.7169 24.1447 34.0213C25.9651 32.4376 27.3071 30.3146 27.9208 27.8994H26.9637C26.4188 29.9265 25.322 31.7295 23.8446 33.1393C22.3672 31.7295 21.2719 29.9265 20.727 27.8994H19.8158C20.4331 30.2796 21.7576 32.3729 23.5506 33.9417C21.5193 35.6163 18.9111 36.6229 16.0673 36.6229C9.58514 36.6229 4.33037 31.3928 4.33037 24.941C4.33037 18.4892 9.58514 13.2591 16.0674 13.2591ZM30.7735 21.511C29.3632 21.511 27.9912 22.7439 27.9912 25.0589C27.9912 26.594 28.7323 27.6069 30.1901 27.6069C30.6023 27.607 31.259 27.4385 31.259 27.4385L31.4764 26.0971C31.4764 26.0971 30.8771 26.4003 30.4657 26.4003C29.5992 26.4003 29.2515 25.7338 29.2515 25.0176C29.2515 23.5646 29.9971 22.7651 30.8271 22.7651C31.4496 22.7651 31.9495 23.1173 31.9495 23.1173L32.1486 21.8126C32.1486 21.8126 31.4086 21.511 30.7735 21.511ZM42.63 21.6243L41.4035 21.6274L41.1401 23.2413C41.1401 23.2413 40.679 22.615 39.958 22.615C38.8369 22.615 37.903 23.9468 37.903 25.4785C37.903 26.4672 38.4 27.4369 39.419 27.4369C40.1519 27.4369 40.5582 26.9332 40.5582 26.9332L40.5046 27.3634H41.696L42.63 21.6243ZM7.50004 21.6411L6.52312 27.394H7.70064L8.44486 23.0561L8.55511 27.394H9.39727L10.9684 23.0561L10.2716 27.394H11.5226L12.4874 21.6411H10.5519L9.34675 25.1707L9.28398 21.6412H7.50009L7.50004 21.6411ZM19.8021 22.0148C19.7755 22.0415 19.0901 25.9939 19.0901 26.4753C19.0901 27.188 19.4896 27.5064 20.0517 27.5012C20.4545 27.4978 20.7664 27.3966 20.9107 27.3542C20.9258 27.3502 20.9551 27.342 20.9551 27.342L21.1067 26.313C21.0243 26.313 20.9029 26.3482 20.7959 26.3482C20.3762 26.3482 20.3297 26.1249 20.3564 25.9593L20.6949 23.86H21.3334L21.488 22.7222H20.8862L21.0087 22.0148H19.8021ZM34.0351 22.5936C33.2132 22.5936 32.5835 22.8646 32.5835 22.8646L32.4089 23.9212C32.4089 23.9212 32.929 23.7053 33.7151 23.7053C34.1614 23.7053 34.4883 23.7563 34.4883 24.1279C34.4883 24.3536 34.4485 24.4372 34.4485 24.4372C34.4485 24.4372 34.0956 24.4066 33.9325 24.4066C32.8961 24.4066 31.8071 24.8608 31.8071 26.2272C31.8071 27.3039 32.522 27.5502 32.9647 27.5502C33.8104 27.5502 34.175 26.9885 34.1944 26.9867L34.1545 27.4553H35.2096L35.6812 24.0743C35.6814 22.6397 34.4594 22.5936 34.0351 22.5936V22.5936ZM14.2437 22.5997C13.4188 22.5997 12.7859 22.8707 12.7859 22.8707L12.6114 23.9273C12.6114 23.9273 13.1332 23.7114 13.9221 23.7114C14.3701 23.7114 14.6985 23.7626 14.6985 24.134C14.6985 24.3596 14.6586 24.4434 14.6586 24.4434C14.6586 24.4434 14.3047 24.4127 14.1411 24.4127C13.1007 24.4127 12.0081 24.8662 12.0081 26.2319C12.0081 27.3079 12.7244 27.5549 13.1687 27.5549C14.0175 27.5549 14.3835 26.993 14.403 26.9914L14.3631 27.4599H15.4227L15.8959 24.0805C15.8959 22.6467 14.6696 22.5997 14.2437 22.5997V22.5997ZM17.986 22.5997C17.1003 22.5997 16.2006 22.9573 16.2006 24.1785C16.2006 25.5621 17.6997 25.4223 17.6997 26.0052C17.6997 26.3942 17.2814 26.4263 16.9586 26.4263C16.4 26.4263 15.8977 26.2333 15.8959 26.2426L15.7351 27.2991C15.764 27.3081 16.0751 27.4476 17.0796 27.4476C17.3493 27.4476 18.891 27.5161 18.891 25.9103C18.891 24.409 17.4639 24.7065 17.4639 24.1034C17.4639 23.8031 17.6956 23.7084 18.1208 23.7084C18.2896 23.7084 18.9401 23.762 18.9401 23.762L19.0901 22.6946C19.0901 22.6948 18.6704 22.5997 17.986 22.5997ZM23.523 22.5997C22.2922 22.6 21.3809 23.9236 21.3809 25.4187C21.3809 27.1445 22.5227 27.5549 23.4955 27.5549C24.3935 27.5549 24.7894 27.3542 24.7894 27.3542L25.0038 26.1767C25.0038 26.1767 24.3207 26.4769 23.7037 26.4769C22.3893 26.4769 22.6196 25.4984 22.6196 25.4984H25.1079C25.1079 25.4984 25.2687 24.7076 25.2687 24.3851C25.2687 23.5806 24.8671 22.5997 23.523 22.5997ZM27.9806 22.6502C27.426 22.6502 27.0143 23.396 27.0143 23.396L27.1245 22.7115H25.973L25.1998 27.437H26.4722C26.8326 25.419 26.8985 23.7805 27.7585 24.0805C27.909 23.2994 28.0551 22.9977 28.2194 22.6671C28.2194 22.6671 28.1423 22.6502 27.9806 22.6502ZM38.2904 22.6502C37.7359 22.6502 37.3242 23.396 37.3242 23.396L37.4345 22.7115H36.283L35.5097 27.437H36.7806C37.1412 25.419 37.2086 23.7805 38.0684 24.0805C38.2192 23.2994 38.3651 22.9977 38.5293 22.6671C38.5293 22.6671 38.4521 22.6502 38.2904 22.6502ZM23.5169 23.6655C24.216 23.6655 24.0881 24.4546 24.0881 24.5184H22.7115C22.7115 24.4369 22.8417 23.6655 23.5169 23.6655ZM40.1509 23.7574C40.5959 23.7572 40.8247 24.0578 40.8247 24.7649C40.8247 25.4065 40.5011 26.264 39.8309 26.264C39.3861 26.264 39.177 25.8966 39.177 25.3207C39.177 24.3791 39.6079 23.7574 40.1509 23.7574ZM34.0366 25.3651C34.2181 25.3654 34.2557 25.383 34.2862 25.3912C34.2818 25.3905 34.281 25.3913 34.2985 25.3942C34.3215 25.6047 34.1713 26.5917 33.4455 26.5917C33.0713 26.5917 32.9755 26.2941 32.9755 26.1185C32.9755 25.7761 33.1537 25.3651 34.0366 25.3651ZM14.2452 25.3697C14.4514 25.37 14.4739 25.393 14.5086 25.3989C14.5316 25.6092 14.3809 26.5947 13.6526 26.5947C13.2769 26.5947 13.1795 26.2986 13.1795 26.1231C13.1795 25.7809 13.3588 25.3697 14.2452 25.3697Z" fill="black"/>
</g>
<defs>
<clipPath id="clip0_86_40">
<rect width="49" height="49" fill="white"/>
</clipPath>
</defs>
</svg>
