<svg width="1" height="1" viewBox="0 0 1 1" fill="none" xmlns="http://www.w3.org/2000/svg">
<g clip-path="url(#clip0_86_24)">
<path d="M0.321429 0.28125V0.375H0.678571V0.28125C0.678571 0.194922 0.598661 0.125 0.5 0.125C0.401339 0.125 0.321429 0.194922 0.321429 0.28125ZM0.178571 0.375V0.28125C0.178571 0.125977 0.322545 0 0.5 0C0.677455 0 0.821429 0.125977 0.821429 0.28125V0.375H0.857143C0.935938 0.375 1 0.431055 1 0.5V0.875C1 0.943945 0.935938 1 0.857143 1H0.142857C0.0640625 1 0 0.943945 0 0.875V0.5C0 0.431055 0.0640625 0.375 0.142857 0.375H0.178571Z" fill="black"/>
</g>
<defs>
<clipPath id="clip0_86_24">
<rect width="1" height="1" fill="white"/>
</clipPath>
</defs>
</svg>
