<svg width="60" height="19" viewBox="0 0 60 19" fill="none" xmlns="http://www.w3.org/2000/svg">
<path d="M39.625 0.00247679C39.5914 0.00250943 39.5579 0.00582903 39.525 0.0123887C37.825 0.483238 38.1675 2.85731 35.0725 3.06052H34.7725C34.7288 3.05974 34.6852 3.0639 34.6425 3.07291H34.64C34.5083 3.10424 34.3911 3.17885 34.3076 3.28459C34.2241 3.39033 34.1791 3.52098 34.18 3.65527V6.35646C34.18 6.68853 34.445 6.9537 34.7725 6.9537H36.385V18.4102C36.385 18.7373 36.645 19 36.9675 19H39.6125C39.7686 18.998 39.9175 18.9349 40.0266 18.8243C40.1358 18.7138 40.1963 18.5649 40.195 18.4102V6.9537H41.695C42.02 6.9537 42.285 6.68853 42.285 6.35646V3.65527C42.2857 3.49904 42.2241 3.34888 42.1135 3.23748C42.003 3.12608 41.8526 3.06248 41.695 3.06052H40.165V0.545192C40.1657 0.474246 40.1522 0.403868 40.1254 0.338073C40.0987 0.272278 40.0591 0.212355 40.0089 0.161729C39.9588 0.111102 39.8991 0.0707627 39.8332 0.043013C39.7673 0.0152632 39.6966 0.00312469 39.625 0.00247679ZM50.1875 2.90192C49.1925 2.90192 48.2825 3.27364 47.5825 3.88079V3.5735C47.5737 3.42486 47.5085 3.28503 47.4 3.18207C47.2915 3.07911 47.1477 3.02063 46.9975 3.01839H44.3225C44.1642 3.021 44.0134 3.08549 43.9029 3.19782C43.7924 3.31015 43.7312 3.46121 43.7325 3.6181V18.2888C43.7312 18.4457 43.7924 18.5967 43.9029 18.7091C44.0134 18.8214 44.1642 18.8859 44.3225 18.8885H46.9975C47.2975 18.8885 47.54 18.663 47.58 18.3706V7.8384C47.5698 7.58292 47.6613 7.3337 47.8348 7.14453C48.0084 6.95536 48.25 6.84142 48.5075 6.82731H48.9975C49.2043 6.84328 49.4013 6.92105 49.5625 7.05034C49.6788 7.1468 49.7717 7.26791 49.8345 7.40474C49.8972 7.54156 49.9281 7.69061 49.925 7.84088V17.9369L49.935 18.321C49.9343 18.4779 49.9962 18.6287 50.1072 18.7405C50.2182 18.8524 50.3692 18.9163 50.5275 18.9182H53.2025C53.3554 18.9158 53.5016 18.8553 53.6109 18.7493C53.7201 18.6433 53.7843 18.4997 53.79 18.3482L53.7875 7.82601C53.7875 7.47907 53.9425 7.16682 54.2225 6.98344C54.369 6.88744 54.5375 6.82949 54.7125 6.81492H55.2075C55.7825 6.86448 56.1325 7.31055 56.1325 7.82601C56.145 11.2855 56.1425 14.7648 56.1425 18.2937C56.1418 18.4506 56.2037 18.6014 56.3147 18.7133C56.4257 18.8251 56.5767 18.889 56.735 18.891H59.41C59.735 18.891 60 18.6233 60 18.2937V7.03548C60 6.26725 59.915 5.94013 59.8 5.60558C59.5336 4.82132 59.0264 4.13928 58.3495 3.65493C57.6726 3.17057 56.8598 2.90815 56.025 2.9044H55.9875C55.4475 2.90482 54.9133 3.015 54.418 3.22811C53.9226 3.44123 53.4766 3.75277 53.1075 4.14347C52.38 3.3802 51.3575 2.9044 50.225 2.9044L50.1875 2.90192ZM0.580021 3.05804C0.503197 3.05869 0.427254 3.07433 0.356529 3.10407C0.285803 3.13382 0.221681 3.17708 0.167822 3.23138C0.113964 3.28569 0.0714242 3.34999 0.0426328 3.42059C0.0138415 3.4912 -0.000637871 3.56673 2.15511e-05 3.64288V18.3235C2.15511e-05 18.6506 0.240021 18.9133 0.540021 18.9207H3.26502C3.59002 18.9207 3.85752 18.6555 3.85752 18.3259L3.86752 14.2172H6.42502C8.56752 14.2172 10.0575 12.7179 10.0575 10.547V6.73562C10.0575 4.56228 8.56752 3.05804 6.42502 3.05804H0.580021ZM23.16 3.05804C23.0815 3.05869 23.004 3.07465 22.9317 3.10502C22.8595 3.13538 22.794 3.17956 22.739 3.23501C22.684 3.29047 22.6405 3.35613 22.6111 3.42824C22.5817 3.50035 22.5669 3.57749 22.5675 3.65527V9.77631C22.5675 12.1058 24.21 13.7612 26.515 13.7612H28.2025C28.2025 13.7612 28.2425 13.7612 28.295 13.7711C28.449 13.7899 28.5906 13.8642 28.6929 13.9798C28.7953 14.0954 28.8512 14.2443 28.85 14.3981C28.85 14.7202 28.61 14.9804 28.3025 15.0201L28.2575 15.03L27.5 15.0449H24.3475C24.1899 15.0468 24.0395 15.1104 23.929 15.2218C23.8185 15.3332 23.7568 15.4834 23.7575 15.6396V18.3408C23.7562 18.4977 23.8174 18.6488 23.9279 18.7611C24.0384 18.8734 24.1893 18.9379 24.3475 18.9405H28.7225C31.0225 18.9405 32.665 17.2826 32.665 14.9557V3.65527C32.6657 3.49904 32.6041 3.34888 32.4935 3.23748C32.383 3.12608 32.2326 3.06248 32.075 3.06052H29.4C29.2424 3.06248 29.092 3.12608 28.9815 3.23748C28.871 3.34888 28.8093 3.49904 28.81 3.65527C28.7975 5.60558 28.81 7.43446 28.81 9.24351C28.8081 9.40722 28.7416 9.56369 28.6248 9.67946C28.508 9.79523 28.3502 9.86112 28.185 9.86305H27.0625C26.8952 9.86109 26.7355 9.79349 26.6183 9.67505C26.5012 9.55661 26.4362 9.39698 26.4375 9.23112C26.45 7.36259 26.425 5.51389 26.425 3.65527C26.4257 3.49904 26.3641 3.34888 26.2535 3.23748C26.143 3.12608 25.9926 3.06248 25.835 3.06052L23.16 3.05804ZM13.15 3.07291C13.0738 3.07093 12.998 3.08385 12.9269 3.11093C12.8558 3.13801 12.7907 3.17872 12.7354 3.23073C12.6802 3.28274 12.6358 3.34504 12.6049 3.41405C12.5739 3.48307 12.557 3.55746 12.555 3.63297V6.16812C12.555 6.49524 12.8375 6.76288 13.185 6.76288H16.7175C16.9975 6.80501 17.2175 7.01069 17.25 7.33285V7.6798C17.2175 7.98709 17 8.21012 16.7325 8.2349H14.9825C12.6575 8.2349 10.9975 9.79614 10.9975 11.9893V15.1341C10.9975 17.3149 12.4225 18.8662 14.735 18.8662H19.585C20.455 18.8662 21.16 18.1971 21.16 17.3793V7.12965C21.16 4.64158 19.89 3.07291 16.86 3.07291H13.15ZM3.86752 6.96857H5.56252C5.91002 6.96857 6.18752 7.25355 6.18752 7.60297V9.67471C6.18851 9.75705 6.17313 9.83877 6.14226 9.91521C6.11138 9.99166 6.06562 10.0613 6.00758 10.1202C5.94954 10.1791 5.88037 10.2261 5.804 10.2586C5.72764 10.291 5.64558 10.3081 5.56252 10.3091H5.31252C4.83252 10.3141 4.34752 10.3091 3.86752 10.3091V6.96857ZM15.5425 11.8679H16.655C17.0025 11.8679 17.285 12.1355 17.285 12.4626V14.7723C17.2841 14.8366 17.2723 14.9002 17.25 14.9606C17.2055 15.0811 17.1244 15.1849 17.0178 15.2577C16.9112 15.3305 16.7844 15.3687 16.655 15.367H15.5425C15.3796 15.3704 15.2219 15.3097 15.1039 15.1983C14.9859 15.0869 14.9171 14.9338 14.9125 14.7723V12.4602C14.9125 12.133 15.195 11.8679 15.5425 11.8679Z" fill="black"/>
</svg>
