<svg width="25" height="34" viewBox="0 0 25 34" fill="none" xmlns="http://www.w3.org/2000/svg">
<path d="M20.7487 17.8434C20.7356 15.4062 21.8164 13.5668 24.0039 12.2121C22.7799 10.4258 20.9309 9.44297 18.4895 9.25039C16.1783 9.06445 13.6523 10.625 12.7278 10.625C11.7513 10.625 9.51168 9.3168 7.75387 9.3168C4.12105 9.37656 0.260376 12.2719 0.260376 18.1621C0.260376 19.902 0.572876 21.6993 1.19788 23.5543C2.03121 25.9914 5.03902 31.968 8.17704 31.8684C9.81767 31.8285 10.9765 30.6797 13.1119 30.6797C15.1822 30.6797 16.2565 31.8684 18.0859 31.8684C21.25 31.8219 23.9713 26.3898 24.7656 23.9461C20.5208 21.9074 20.7487 17.9695 20.7487 17.8434ZM17.0638 6.93945C18.8411 4.78789 18.6783 2.82891 18.6263 2.125C17.0573 2.21797 15.2408 3.21406 14.2057 4.44258C13.0664 5.75742 12.3958 7.38437 12.539 9.21719C14.2382 9.35 15.7877 8.46016 17.0638 6.93945Z" fill="black"/>
</svg>
