<svg width="36" height="36" viewBox="0 0 36 36" fill="none" xmlns="http://www.w3.org/2000/svg">
<circle cx="18" cy="18" r="16.5" fill="#D9D9D9" stroke="black" stroke-width="3"/>
<path d="M15.6522 14.0869V15.6522H20.8696V14.0869C20.8696 12.6456 19.7022 11.4783 18.2609 11.4783C16.8196 11.4783 15.6522 12.6456 15.6522 14.0869ZM13.5652 15.6522V14.0869C13.5652 11.4946 15.6685 9.3913 18.2609 9.3913C20.8533 9.3913 22.9565 11.4946 22.9565 14.0869V15.6522H23.4783C24.6294 15.6522 25.5652 16.588 25.5652 17.7391V24C25.5652 25.1511 24.6294 26.0869 23.4783 26.0869H13.0435C11.8924 26.0869 10.9565 25.1511 10.9565 24V17.7391C10.9565 16.588 11.8924 15.6522 13.0435 15.6522H13.5652Z" fill="black"/>
</svg>
