<svg width="67" height="67" viewBox="0 0 67 67" fill="none" xmlns="http://www.w3.org/2000/svg">
<path d="M33.5 5.69495C18.1458 5.69495 5.58331 18.2295 5.58331 33.6674C5.58331 47.6258 15.8008 59.2112 29.145 61.3049V41.7633H22.0541V33.6674H29.145V27.4979C29.145 20.4908 33.3046 16.6383 39.6975 16.6383C42.7404 16.6383 45.9229 17.1687 45.9229 17.1687V24.0641H42.4054C38.9437 24.0641 37.855 26.2137 37.855 28.4191V33.6674H45.6158L44.3596 41.7633H37.855V61.3049C44.4334 60.266 50.4236 56.9095 54.7444 51.8414C59.0651 46.7732 61.4316 40.3274 61.4166 33.6674C61.4166 18.2295 48.8541 5.69495 33.5 5.69495Z" fill="white"/>
</svg>
