<svg width="67" height="67" viewBox="0 0 67 67" fill="none" xmlns="http://www.w3.org/2000/svg">
<path d="M21.775 5.58337H45.225C54.1583 5.58337 61.4167 12.8417 61.4167 21.775V45.225C61.4167 49.5193 59.7108 53.6378 56.6742 56.6743C53.6377 59.7108 49.5193 61.4167 45.225 61.4167H21.775C12.8417 61.4167 5.58334 54.1584 5.58334 45.225V21.775C5.58334 17.4807 7.28925 13.3623 10.3258 10.3258C13.3623 7.28928 17.4807 5.58337 21.775 5.58337ZM21.2167 11.1667C18.5513 11.1667 15.995 12.2255 14.1103 14.1103C12.2255 15.995 11.1667 18.5513 11.1667 21.2167V45.7834C11.1667 51.3388 15.6613 55.8334 21.2167 55.8334H45.7833C48.4488 55.8334 51.005 54.7745 52.8898 52.8898C54.7745 51.0051 55.8333 48.4488 55.8333 45.7834V21.2167C55.8333 15.6613 51.3388 11.1667 45.7833 11.1667H21.2167ZM48.1563 15.3542C49.0818 15.3542 49.9693 15.7219 50.6238 16.3763C51.2782 17.0307 51.6458 17.9183 51.6458 18.8438C51.6458 19.7693 51.2782 20.6569 50.6238 21.3113C49.9693 21.9657 49.0818 22.3334 48.1563 22.3334C47.2308 22.3334 46.3432 21.9657 45.6887 21.3113C45.0343 20.6569 44.6667 19.7693 44.6667 18.8438C44.6667 17.9183 45.0343 17.0307 45.6887 16.3763C46.3432 15.7219 47.2308 15.3542 48.1563 15.3542ZM33.5 19.5417C37.202 19.5417 40.7523 21.0123 43.37 23.63C45.9877 26.2477 47.4583 29.7981 47.4583 33.5C47.4583 37.202 45.9877 40.7524 43.37 43.3701C40.7523 45.9878 37.202 47.4584 33.5 47.4584C29.798 47.4584 26.2477 45.9878 23.63 43.3701C21.0123 40.7524 19.5417 37.202 19.5417 33.5C19.5417 29.7981 21.0123 26.2477 23.63 23.63C26.2477 21.0123 29.798 19.5417 33.5 19.5417ZM33.5 25.125C31.2788 25.125 29.1486 26.0074 27.578 27.578C26.0074 29.1486 25.125 31.2789 25.125 33.5C25.125 35.7212 26.0074 37.8514 27.578 39.4221C29.1486 40.9927 31.2788 41.875 33.5 41.875C35.7212 41.875 37.8514 40.9927 39.422 39.4221C40.9926 37.8514 41.875 35.7212 41.875 33.5C41.875 31.2789 40.9926 29.1486 39.422 27.578C37.8514 26.0074 35.7212 25.125 33.5 25.125Z" fill="white"/>
</svg>
