<svg width="39" height="39" viewBox="0 0 39 39" fill="none" xmlns="http://www.w3.org/2000/svg">
<g clip-path="url(#clip0_86_56)">
<path d="M16.5846 16.154H21.3768V23.7785C20.7235 24.1051 19.8525 24.214 19.1993 24.214C17.4573 24.214 16.5846 23.343 16.5846 21.3816V16.154ZM38.4734 23.98C35.9985 34.4596 25.4978 40.9483 15.0198 38.4734C4.54014 36.0001 -1.94848 25.4978 0.526394 15.0198C3.00127 4.54014 13.502 -1.94848 23.98 0.526394C34.4596 3.00127 40.9483 13.502 38.4734 23.98ZM28.348 14.412C28.3413 14.0387 28.1901 13.6826 27.9261 13.4186C27.6621 13.1546 27.3059 13.0033 26.9326 12.9966H24.318L18.3283 6.13589C17.7839 5.48264 16.9129 5.26489 16.0419 5.48264L13.9716 6.13427C13.645 6.24314 13.5361 6.67864 13.7539 6.89639L20.288 13.1039H10.3771C10.0505 13.1039 9.83277 13.3216 9.83277 13.6483V14.737C9.83277 15.4991 10.486 16.1524 11.2481 16.1524H12.7724V21.38C12.7724 25.3011 14.841 27.5875 18.3266 27.5875C19.4154 27.5875 20.2864 27.4786 21.3768 27.0431V30.5288C21.3768 31.5086 22.1389 32.2708 23.1188 32.2708H24.643C24.8125 32.2594 24.9721 32.1869 25.0922 32.0667C25.2124 31.9466 25.2849 31.787 25.2963 31.6175V16.0451H27.802C28.1286 16.0451 28.3464 15.8274 28.3464 15.5008L28.348 14.412Z" fill="black"/>
</g>
<defs>
<clipPath id="clip0_86_56">
<rect width="39" height="39" fill="white"/>
</clipPath>
</defs>
</svg>
